<svg data-v-423bf9ae="" xmlns="http://www.w3.org/2000/svg" viewBox="0 0 468 112" class="iconLeftSlogan"><!----><defs data-v-423bf9ae=""><linearGradient data-v-423bf9ae="" gradientTransform="rotate(25)" id="16d3f6ba-7356-4fb1-9788-dc86f2727b82" x1="0%" y1="0%" x2="100%" y2="0%"><stop data-v-423bf9ae="" offset="0%" style="stop-color: rgb(30, 11, 54); stop-opacity: 1;"></stop><stop data-v-423bf9ae="" offset="100%" style="stop-color: rgb(202, 55, 130); stop-opacity: 1;"></stop></linearGradient></defs><!----><g data-v-423bf9ae="" id="eb37e544-87f9-44c3-bcf8-a4d0307e503e" fill="#ffffff" transform="matrix(4.92206705261137,0,0,4.92206705261137,102.68818870109024,-18.211648090945936)"><path d="M7.83 15.54C7.83 15.69 7.67 15.81 7.48 15.81L1.54 15.81C1.39 15.81 1.26 15.69 1.26 15.54L1.26 4.12C1.26 3.93 1.39 3.78 1.54 3.78L3.18 3.78C3.33 3.78 3.44 3.93 3.44 4.12L3.44 13.62L7.48 13.62C7.67 13.62 7.83 13.75 7.83 13.90ZM17.15 12.05C17.15 13.22 16.67 14.22 15.79 14.92C15.05 15.50 14.08 15.82 13.05 15.82C12.01 15.82 11.05 15.50 10.30 14.92C9.42 14.22 8.95 13.22 8.95 12.05L8.95 4.07C8.95 3.92 9.07 3.78 9.23 3.78L10.86 3.78C11.02 3.78 11.13 3.92 11.13 4.07L11.13 12.05C11.13 13.58 12.85 13.64 13.05 13.64C13.24 13.64 14.97 13.58 14.97 12.05L14.97 4.07C14.97 3.92 15.09 3.78 15.23 3.78L16.88 3.78C17.02 3.78 17.15 3.92 17.15 4.07ZM18.83 3.79L23.41 8.37L27.99 3.79L27.99 15.54C27.99 15.69 27.87 15.82 27.72 15.82L26.11 15.82C25.96 15.82 25.83 15.69 25.83 15.54L25.83 8.99L23.41 11.41L20.99 8.99L20.99 15.54C20.99 15.69 20.87 15.82 20.72 15.82L19.10 15.82C18.96 15.82 18.83 15.69 18.83 15.54ZM33.21 5.95L33.21 13.61L35.04 13.61C35.24 13.61 35.39 13.73 35.39 13.89L35.39 15.53C35.39 15.68 35.24 15.81 35.04 15.81L29.11 15.81C28.95 15.81 28.83 15.68 28.83 15.53L28.83 13.89C28.83 13.73 28.95 13.61 29.11 13.61L31.01 13.61L31.01 5.95L29.11 5.95C28.95 5.95 28.83 5.84 28.83 5.68L28.83 4.05C28.83 3.89 28.95 3.77 29.11 3.77L35.04 3.77C35.24 3.77 35.39 3.89 35.39 4.05L35.39 5.68C35.39 5.84 35.24 5.95 35.04 5.95ZM45.28 15.89L39.26 9.32L39.26 15.53C39.26 15.68 39.14 15.81 38.99 15.81L37.35 15.81C37.20 15.81 37.07 15.68 37.07 15.53L37.07 3.70L43.09 10.26L43.09 4.06C43.09 3.91 43.22 3.78 43.36 3.78L45.01 3.78C45.15 3.78 45.28 3.91 45.28 4.06ZM54.39 11.16C54.39 11.00 54.26 10.89 54.11 10.89L53.19 10.89L51.48 4.05L51.46 3.98C51.42 3.88 51.32 3.81 51.21 3.81L49.38 3.81C49.27 3.81 49.17 3.88 49.13 3.98L49.11 4.06L46.27 15.41C46.27 15.43 46.27 15.44 46.26 15.44L46.26 15.50C46.26 15.67 46.38 15.79 46.52 15.79L48.22 15.79C48.33 15.79 48.44 15.71 48.47 15.60C48.47 15.58 48.48 15.57 48.48 15.57L49.10 13.06L51.49 13.06L52.11 15.55L52.12 15.60C52.16 15.71 52.26 15.79 52.37 15.79L54.07 15.79C54.22 15.79 54.33 15.67 54.33 15.50L54.33 15.47L54.32 15.40L53.73 13.06L54.11 13.06C54.26 13.06 54.39 12.95 54.39 12.80ZM49.64 10.89L50.30 8.30L50.95 10.89ZM64.34 15.37L62.12 11.42L61.81 10.89L61.74 10.77C63.77 10.32 64.82 8.82 64.82 7.35C64.82 6.38 64.37 5.46 63.60 4.82C62.82 4.14 61.71 3.79 60.44 3.79L56.35 3.79C56.20 3.79 56.07 3.92 56.07 4.06L56.07 5.17L56.21 5.42L56.21 5.43L58.07 8.71L56.07 8.71L56.07 15.54C56.07 15.69 56.20 15.82 56.35 15.82L57.99 15.82C58.13 15.82 58.25 15.69 58.25 15.54L58.25 10.89L59.30 10.89L59.60 11.42L61.99 15.65L62.02 15.69C62.06 15.76 62.15 15.82 62.24 15.82L64.12 15.82C64.27 15.82 64.39 15.69 64.39 15.53C64.39 15.48 64.39 15.44 64.36 15.40ZM60.28 8.19L59.04 5.98L60.44 5.98C61.95 5.98 62.62 6.69 62.62 7.35C62.62 7.91 62.12 8.53 60.98 8.68C60.86 8.69 60.72 8.71 60.58 8.71ZM74.16 4.06C74.16 4.10 74.16 4.13 74.14 4.17L74.12 4.21L71.08 10.05L70.62 10.96L68.18 15.62L68.17 15.67C68.17 15.68 68.17 15.68 68.15 15.68C68.11 15.75 68.03 15.81 67.93 15.81L66.08 15.81C65.93 15.81 65.81 15.68 65.81 15.51C65.81 15.48 65.81 15.46 65.83 15.43L65.87 15.34L68.70 9.91L65.83 4.20C65.81 4.14 65.80 4.10 65.80 4.06C65.80 4.03 65.80 3.99 65.81 3.96L65.86 3.88C65.91 3.81 65.98 3.77 66.08 3.77L67.90 3.77C68.00 3.77 68.10 3.82 68.14 3.91L69.94 7.52L71.79 3.95C71.81 3.93 71.81 3.92 71.81 3.92L71.83 3.88C71.88 3.81 71.96 3.77 72.04 3.77L73.89 3.77C74.05 3.77 74.16 3.91 74.16 4.06Z"></path></g><!----><g data-v-423bf9ae="" id="fe60e8e1-b78a-45f2-a89b-1026bb7d1389" transform="matrix(1.1111111111111112,0,0,1.1111111111111112,0.5550003051757812,0.44444444444444287)" stroke="none" fill="#ffffff"><path d="M64.001 40v2H57v-8h-3.714C60.104 31.608 65 25.134 65 17.5 65 7.835 57.165 0 47.5 0c-6.378 0-11.941 3.423-15 8.52C29.441 3.423 23.878 0 17.5 0 7.835 0 0 7.835 0 17.5 0 25.134 4.896 31.608 11.714 34H8v11H2v6h6v11h20v2h-5v4h3.14l-22.6 32h4.908l22.588-32h3.104l-22.6 32h4.908l22.588-32H42v-4h-5v-2h20v-8h7.001v2h16V40h-16zm-40.715-6a17.521 17.521 0 0 0 9.214-7.52A17.526 17.526 0 0 0 41.714 34H23.286z"></path></g><!----><g data-v-423bf9ae="" id="1be10a4c-75a7-4dc4-91bb-b60a2544e773" fill="#ffffff" transform="matrix(1.0582281887376668,0,0,1.0582281887376668,107.55663255692653,57.079289815213805)"><path d="M1.68 7.64L5.60 7.64L5.60 7.24L1.68 7.24L1.68 3.21L5.74 3.21L5.74 2.80L1.26 2.80L1.26 12.60L1.68 12.60ZM13.65 9.38C13.65 10.36 13.94 11.16 14.51 11.78C15.08 12.40 15.81 12.71 16.69 12.71C17.57 12.71 18.29 12.40 18.86 11.78C19.44 11.16 19.73 10.36 19.73 9.38C19.73 8.40 19.44 7.60 18.86 6.98C18.29 6.36 17.57 6.05 16.69 6.05C15.81 6.05 15.08 6.36 14.51 6.98C13.94 7.60 13.65 8.40 13.65 9.38ZM14.07 9.38C14.07 8.52 14.32 7.82 14.81 7.28C15.31 6.74 15.93 6.47 16.69 6.47C17.44 6.47 18.07 6.74 18.56 7.28C19.06 7.82 19.31 8.52 19.31 9.38C19.31 10.24 19.06 10.94 18.56 11.48C18.07 12.02 17.44 12.29 16.69 12.29C15.93 12.29 15.31 12.02 14.81 11.48C14.32 10.94 14.07 10.24 14.07 9.38ZM31.28 6.96L31.53 6.57C31.16 6.22 30.81 6.05 30.46 6.05C29.68 6.05 29.18 6.51 28.97 7.43L28.97 6.16L28.55 6.16L28.55 12.60L28.97 12.60L28.97 8.68C28.97 8.17 29.09 7.68 29.34 7.21C29.60 6.74 29.92 6.51 30.31 6.51C30.73 6.51 31.05 6.66 31.28 6.96ZM50.08 6.16L52.81 12.32L51.41 15.68L51.90 15.68L55.96 6.16L55.47 6.16L53.06 11.87L50.55 6.16ZM63.73 9.38C63.73 10.36 64.02 11.16 64.59 11.78C65.16 12.40 65.89 12.71 66.77 12.71C67.64 12.71 68.37 12.40 68.94 11.78C69.52 11.16 69.80 10.36 69.80 9.38C69.80 8.40 69.52 7.60 68.94 6.98C68.37 6.36 67.64 6.05 66.77 6.05C65.89 6.05 65.16 6.36 64.59 6.98C64.02 7.60 63.73 8.40 63.73 9.38ZM64.15 9.38C64.15 8.52 64.40 7.82 64.89 7.28C65.38 6.74 66.01 6.47 66.77 6.47C67.52 6.47 68.15 6.74 68.64 7.28C69.14 7.82 69.38 8.52 69.38 9.38C69.38 10.24 69.14 10.94 68.64 11.48C68.15 12.02 67.52 12.29 66.77 12.29C66.01 12.29 65.38 12.02 64.89 11.48C64.40 10.94 64.15 10.24 64.15 9.38ZM82.75 10.08C82.75 10.64 82.55 11.15 82.14 11.61C81.74 12.06 81.23 12.29 80.63 12.29C79.57 12.29 79.04 11.60 79.04 10.22L79.04 6.16L78.62 6.16L78.62 10.36C78.62 11.08 78.78 11.65 79.10 12.07C79.42 12.50 79.88 12.71 80.49 12.71C81.07 12.71 81.56 12.57 81.94 12.30C82.32 12.02 82.60 11.64 82.75 11.14L82.75 12.60L83.17 12.60L83.17 6.16L82.75 6.16ZM95.28 6.96L95.54 6.57C95.17 6.22 94.82 6.05 94.47 6.05C93.69 6.05 93.19 6.51 92.97 7.43L92.97 6.16L92.55 6.16L92.55 12.60L92.97 12.60L92.97 8.68C92.97 8.17 93.10 7.68 93.35 7.21C93.60 6.74 93.93 6.51 94.32 6.51C94.74 6.51 95.06 6.66 95.28 6.96ZM119.88 9.06L115.04 9.06C115.06 8.38 115.31 7.77 115.79 7.25C116.27 6.73 116.85 6.47 117.53 6.47C118.21 6.47 118.77 6.72 119.21 7.24C119.65 7.75 119.87 8.36 119.88 9.06ZM115.01 9.48L120.32 9.48C120.33 9.43 120.33 9.38 120.33 9.32C120.33 8.33 120.07 7.53 119.55 6.94C119.04 6.34 118.36 6.05 117.53 6.05C116.68 6.05 115.98 6.36 115.42 6.99C114.86 7.61 114.58 8.41 114.58 9.38C114.58 10.33 114.87 11.13 115.46 11.76C116.05 12.39 116.74 12.71 117.53 12.71C118.76 12.71 119.68 12.13 120.29 10.96L119.92 10.74C119.38 11.76 118.59 12.28 117.56 12.28C116.87 12.28 116.27 12.01 115.78 11.47C115.29 10.92 115.03 10.26 115.01 9.48ZM129.57 8.68C129.57 8.12 129.77 7.61 130.18 7.15C130.59 6.70 131.09 6.47 131.70 6.47C132.75 6.47 133.28 7.16 133.28 8.54L133.28 12.60L133.70 12.60L133.70 8.40C133.70 7.68 133.54 7.11 133.22 6.68C132.91 6.26 132.44 6.05 131.84 6.05C131.25 6.05 130.76 6.19 130.38 6.46C130.00 6.74 129.73 7.12 129.57 7.62L129.57 6.16L129.15 6.16L129.15 12.60L129.57 12.60ZM142.87 3.92L142.87 6.16L141.82 6.16L141.82 6.58L142.87 6.58L142.87 12.60L143.29 12.60L143.29 6.58L144.34 6.58L144.34 6.16L143.29 6.16L143.29 3.92ZM157.49 9.06L152.64 9.06C152.66 8.38 152.91 7.77 153.39 7.25C153.87 6.73 154.45 6.47 155.13 6.47C155.82 6.47 156.38 6.72 156.81 7.24C157.25 7.75 157.48 8.36 157.49 9.06ZM152.61 9.48L157.92 9.48C157.93 9.43 157.93 9.38 157.93 9.32C157.93 8.33 157.68 7.53 157.16 6.94C156.64 6.34 155.96 6.05 155.13 6.05C154.28 6.05 153.58 6.36 153.02 6.99C152.46 7.61 152.18 8.41 152.18 9.38C152.18 10.33 152.47 11.13 153.06 11.76C153.65 12.39 154.34 12.71 155.13 12.71C156.37 12.71 157.29 12.13 157.89 10.96L157.53 10.74C156.99 11.76 156.20 12.28 155.16 12.28C154.47 12.28 153.88 12.01 153.38 11.47C152.89 10.92 152.63 10.26 152.61 9.48ZM169.48 6.96L169.74 6.57C169.37 6.22 169.02 6.05 168.67 6.05C167.89 6.05 167.39 6.51 167.17 7.43L167.17 6.16L166.75 6.16L166.75 12.60L167.17 12.60L167.17 8.68C167.17 8.17 167.30 7.68 167.55 7.21C167.80 6.74 168.13 6.51 168.52 6.51C168.94 6.51 169.26 6.66 169.48 6.96ZM178.49 3.92L178.49 6.16L177.44 6.16L177.44 6.58L178.49 6.58L178.49 12.60L178.91 12.60L178.91 6.58L179.96 6.58L179.96 6.16L178.91 6.16L178.91 3.92ZM188.19 7.32C188.56 7.03 188.91 6.81 189.23 6.66C189.55 6.51 189.95 6.44 190.43 6.44C191.57 6.44 192.14 6.95 192.14 7.98L192.14 9.13C191.64 8.82 191.02 8.67 190.26 8.67C189.57 8.67 188.97 8.85 188.48 9.21C187.98 9.56 187.73 10.07 187.73 10.71C187.73 11.39 187.94 11.90 188.36 12.24C188.78 12.57 189.28 12.74 189.87 12.74C190.47 12.74 190.96 12.61 191.36 12.35C191.76 12.09 192.01 11.74 192.14 11.31L192.14 12.60L192.56 12.60L192.56 7.98C192.56 7.34 192.39 6.85 192.05 6.52C191.72 6.19 191.17 6.02 190.43 6.02C190.06 6.02 189.72 6.07 189.39 6.18C189.05 6.29 188.80 6.40 188.63 6.50C188.46 6.61 188.23 6.76 187.96 6.96ZM188.16 10.71C188.16 10.20 188.36 9.79 188.76 9.50C189.15 9.21 189.65 9.06 190.26 9.06C190.93 9.06 191.56 9.23 192.14 9.56L192.14 10.36C192.14 10.94 191.92 11.41 191.48 11.79C191.04 12.16 190.53 12.35 189.94 12.35C189.38 12.35 188.94 12.21 188.63 11.93C188.32 11.65 188.16 11.24 188.16 10.71ZM201.73 3.15C201.73 3.26 201.76 3.36 201.83 3.43C201.90 3.50 202.00 3.54 202.12 3.54C202.24 3.54 202.34 3.50 202.41 3.43C202.48 3.36 202.51 3.26 202.51 3.15C202.51 3.04 202.48 2.94 202.41 2.87C202.34 2.80 202.24 2.76 202.12 2.76C202.00 2.76 201.90 2.80 201.83 2.87C201.76 2.94 201.73 3.04 201.73 3.15ZM201.91 6.16L201.91 12.60L202.33 12.60L202.33 6.16ZM212.31 8.68C212.31 8.12 212.51 7.61 212.92 7.15C213.33 6.70 213.83 6.47 214.44 6.47C215.49 6.47 216.02 7.16 216.02 8.54L216.02 12.60L216.44 12.60L216.44 8.40C216.44 7.68 216.28 7.11 215.96 6.68C215.65 6.26 215.18 6.05 214.58 6.05C213.99 6.05 213.50 6.19 213.12 6.46C212.74 6.74 212.47 7.12 212.31 7.62L212.31 6.16L211.89 6.16L211.89 12.60L212.31 12.60ZM226.24 8.68C226.24 8.13 226.44 7.62 226.83 7.16C227.22 6.70 227.69 6.47 228.23 6.47C228.70 6.47 229.06 6.65 229.31 7.01C229.55 7.38 229.67 7.89 229.67 8.54L229.67 12.60L230.09 12.60L230.09 8.68C230.09 8.13 230.29 7.62 230.68 7.16C231.07 6.70 231.54 6.47 232.08 6.47C232.55 6.47 232.91 6.65 233.16 7.01C233.40 7.38 233.52 7.89 233.52 8.54L233.52 12.60L233.94 12.60L233.94 8.40C233.94 7.69 233.79 7.12 233.49 6.69C233.18 6.26 232.76 6.05 232.22 6.05C231.68 6.05 231.21 6.19 230.83 6.47C230.45 6.76 230.18 7.15 230.02 7.64C229.92 7.15 229.73 6.76 229.45 6.47C229.17 6.19 228.81 6.05 228.37 6.05C227.84 6.05 227.39 6.19 227.02 6.47C226.65 6.75 226.39 7.13 226.24 7.62L226.24 6.16L225.82 6.16L225.82 12.60L226.24 12.60ZM248.07 9.06L243.22 9.06C243.24 8.38 243.49 7.77 243.97 7.25C244.45 6.73 245.03 6.47 245.71 6.47C246.40 6.47 246.96 6.72 247.39 7.24C247.83 7.75 248.06 8.36 248.07 9.06ZM243.19 9.48L248.50 9.48C248.51 9.43 248.51 9.38 248.51 9.32C248.51 8.33 248.26 7.53 247.74 6.94C247.22 6.34 246.54 6.05 245.71 6.05C244.86 6.05 244.16 6.36 243.60 6.99C243.04 7.61 242.76 8.41 242.76 9.38C242.76 10.33 243.05 11.13 243.64 11.76C244.23 12.39 244.92 12.71 245.71 12.71C246.95 12.71 247.87 12.13 248.47 10.96L248.11 10.74C247.57 11.76 246.78 12.28 245.74 12.28C245.05 12.28 244.46 12.01 243.96 11.47C243.47 10.92 243.21 10.26 243.19 9.48ZM257.75 8.68C257.75 8.12 257.96 7.61 258.36 7.15C258.77 6.70 259.28 6.47 259.88 6.47C260.94 6.47 261.46 7.16 261.46 8.54L261.46 12.60L261.88 12.60L261.88 8.40C261.88 7.68 261.73 7.11 261.41 6.68C261.09 6.26 260.63 6.05 260.02 6.05C259.43 6.05 258.95 6.19 258.57 6.46C258.18 6.74 257.91 7.12 257.75 7.62L257.75 6.16L257.33 6.16L257.33 12.60L257.75 12.60ZM271.05 3.92L271.05 6.16L270.00 6.16L270.00 6.58L271.05 6.58L271.05 12.60L271.47 12.60L271.47 6.58L272.52 6.58L272.52 6.16L271.47 6.16L271.47 3.92Z"></path></g></svg>