<svg data-v-fde0c5aa="" xmlns="http://www.w3.org/2000/svg" viewBox="0 0 300 300" class="font"><!----><defs data-v-fde0c5aa=""><linearGradient data-v-fde0c5aa="" gradientTransform="rotate(25)" id="72bc927d-71a5-4d3d-8ced-e20bff4e2537" x1="0%" y1="0%" x2="100%" y2="0%"><stop data-v-fde0c5aa="" offset="0%" stop-color="#1E0B36" stop-opacity="1"></stop><stop data-v-fde0c5aa="" offset="100%" stop-color="#CA3782" stop-opacity="1"></stop></linearGradient></defs><rect data-v-fde0c5aa="" fill="url(#72bc927d-71a5-4d3d-8ced-e20bff4e2537)" x="0" y="0" width="300px" height="300px" class="logo-background-square"></rect><defs data-v-fde0c5aa=""><!----></defs><g data-v-fde0c5aa="" id="46065595-d80f-4679-ab18-3f8638ad4c10" fill="#ffffff" transform="matrix(3.0178325842956504,0,0,3.0178325842956504,36.197530972567776,120.44032888707439)"><path d="M7.83 15.54C7.83 15.69 7.67 15.81 7.48 15.81L1.54 15.81C1.39 15.81 1.26 15.69 1.26 15.54L1.26 4.12C1.26 3.93 1.39 3.78 1.54 3.78L3.18 3.78C3.33 3.78 3.44 3.93 3.44 4.12L3.44 13.62L7.48 13.62C7.67 13.62 7.83 13.75 7.83 13.90ZM17.15 12.05C17.15 13.22 16.67 14.22 15.79 14.92C15.05 15.50 14.08 15.82 13.05 15.82C12.01 15.82 11.05 15.50 10.30 14.92C9.42 14.22 8.95 13.22 8.95 12.05L8.95 4.07C8.95 3.92 9.07 3.78 9.23 3.78L10.86 3.78C11.02 3.78 11.13 3.92 11.13 4.07L11.13 12.05C11.13 13.58 12.85 13.64 13.05 13.64C13.24 13.64 14.97 13.58 14.97 12.05L14.97 4.07C14.97 3.92 15.09 3.78 15.23 3.78L16.88 3.78C17.02 3.78 17.15 3.92 17.15 4.07ZM18.83 3.79L23.41 8.37L27.99 3.79L27.99 15.54C27.99 15.69 27.87 15.82 27.72 15.82L26.11 15.82C25.96 15.82 25.83 15.69 25.83 15.54L25.83 8.99L23.41 11.41L20.99 8.99L20.99 15.54C20.99 15.69 20.87 15.82 20.72 15.82L19.10 15.82C18.96 15.82 18.83 15.69 18.83 15.54ZM33.21 5.95L33.21 13.61L35.04 13.61C35.24 13.61 35.39 13.73 35.39 13.89L35.39 15.53C35.39 15.68 35.24 15.81 35.04 15.81L29.11 15.81C28.95 15.81 28.83 15.68 28.83 15.53L28.83 13.89C28.83 13.73 28.95 13.61 29.11 13.61L31.01 13.61L31.01 5.95L29.11 5.95C28.95 5.95 28.83 5.84 28.83 5.68L28.83 4.05C28.83 3.89 28.95 3.77 29.11 3.77L35.04 3.77C35.24 3.77 35.39 3.89 35.39 4.05L35.39 5.68C35.39 5.84 35.24 5.95 35.04 5.95ZM45.28 15.89L39.26 9.32L39.26 15.53C39.26 15.68 39.14 15.81 38.99 15.81L37.35 15.81C37.20 15.81 37.07 15.68 37.07 15.53L37.07 3.70L43.09 10.26L43.09 4.06C43.09 3.91 43.22 3.78 43.36 3.78L45.01 3.78C45.15 3.78 45.28 3.91 45.28 4.06ZM54.39 11.16C54.39 11.00 54.26 10.89 54.11 10.89L53.19 10.89L51.48 4.05L51.46 3.98C51.42 3.88 51.32 3.81 51.21 3.81L49.38 3.81C49.27 3.81 49.17 3.88 49.13 3.98L49.11 4.06L46.27 15.41C46.27 15.43 46.27 15.44 46.26 15.44L46.26 15.50C46.26 15.67 46.38 15.79 46.52 15.79L48.22 15.79C48.33 15.79 48.44 15.71 48.47 15.60C48.47 15.58 48.48 15.57 48.48 15.57L49.10 13.06L51.49 13.06L52.11 15.55L52.12 15.60C52.16 15.71 52.26 15.79 52.37 15.79L54.07 15.79C54.22 15.79 54.33 15.67 54.33 15.50L54.33 15.47L54.32 15.40L53.73 13.06L54.11 13.06C54.26 13.06 54.39 12.95 54.39 12.80ZM49.64 10.89L50.30 8.30L50.95 10.89ZM64.34 15.37L62.12 11.42L61.81 10.89L61.74 10.77C63.77 10.32 64.82 8.82 64.82 7.35C64.82 6.38 64.37 5.46 63.60 4.82C62.82 4.14 61.71 3.79 60.44 3.79L56.35 3.79C56.20 3.79 56.07 3.92 56.07 4.06L56.07 5.17L56.21 5.42L56.21 5.43L58.07 8.71L56.07 8.71L56.07 15.54C56.07 15.69 56.20 15.82 56.35 15.82L57.99 15.82C58.13 15.82 58.25 15.69 58.25 15.54L58.25 10.89L59.30 10.89L59.60 11.42L61.99 15.65L62.02 15.69C62.06 15.76 62.15 15.82 62.24 15.82L64.12 15.82C64.27 15.82 64.39 15.69 64.39 15.53C64.39 15.48 64.39 15.44 64.36 15.40ZM60.28 8.19L59.04 5.98L60.44 5.98C61.95 5.98 62.62 6.69 62.62 7.35C62.62 7.91 62.12 8.53 60.98 8.68C60.86 8.69 60.72 8.71 60.58 8.71ZM74.16 4.06C74.16 4.10 74.16 4.13 74.14 4.17L74.12 4.21L71.08 10.05L70.62 10.96L68.18 15.62L68.17 15.67C68.17 15.68 68.17 15.68 68.15 15.68C68.11 15.75 68.03 15.81 67.93 15.81L66.08 15.81C65.93 15.81 65.81 15.68 65.81 15.51C65.81 15.48 65.81 15.46 65.83 15.43L65.87 15.34L68.70 9.91L65.83 4.20C65.81 4.14 65.80 4.10 65.80 4.06C65.80 4.03 65.80 3.99 65.81 3.96L65.86 3.88C65.91 3.81 65.98 3.77 66.08 3.77L67.90 3.77C68.00 3.77 68.10 3.82 68.14 3.91L69.94 7.52L71.79 3.95C71.81 3.93 71.81 3.92 71.81 3.92L71.83 3.88C71.88 3.81 71.96 3.77 72.04 3.77L73.89 3.77C74.05 3.77 74.16 3.91 74.16 4.06Z"></path></g><!----><!----></svg>