<svg width="600" height="111" viewBox="0 0 600 111" fill="none" xmlns="http://www.w3.org/2000/svg">
<mask id="path-1-inside-1" fill="white">
<path d="M46.5626 85.7563C44.7143 85.7563 42.9754 84.762 42.0348 83.1712L35.0024 71.3946L27.981 83.1712C27.0295 84.7731 25.2905 85.7673 23.4422 85.7673C22.9501 85.7673 22.4579 85.7011 21.9876 85.5574L7.00419 81.2268V100.891C7.00419 102.515 8.09787 103.929 9.6509 104.316L33.2963 110.293C34.4118 110.569 35.5821 110.569 36.6867 110.293L60.3539 104.316C61.907 103.918 63.0007 102.504 63.0007 100.891V81.2268L48.0172 85.5464C47.5469 85.69 47.0548 85.7563 46.5626 85.7563ZM69.8143 73.361L64.1818 62.0042C63.8428 61.3193 63.11 60.9216 62.3554 61.021L35.0024 64.5451L45.0315 81.3484C45.4471 82.0443 46.2783 82.3758 47.0548 82.1548L68.6987 75.913C69.7815 75.5926 70.3064 74.3774 69.8143 73.361ZM5.82301 62.0042L0.190555 73.361C-0.312538 74.3774 0.223365 75.5926 1.29517 75.9019L22.9391 82.1438C23.7156 82.3647 24.5468 82.0333 24.9624 81.3373L35.0024 64.5451L7.63852 61.021C6.88388 60.9326 6.16205 61.3193 5.82301 62.0042Z"/>
</mask>
<path d="M46.5626 85.7563C44.7143 85.7563 42.9754 84.762 42.0348 83.1712L35.0024 71.3946L27.981 83.1712C27.0295 84.7731 25.2905 85.7673 23.4422 85.7673C22.9501 85.7673 22.4579 85.7011 21.9876 85.5574L7.00419 81.2268V100.891C7.00419 102.515 8.09787 103.929 9.6509 104.316L33.2963 110.293C34.4118 110.569 35.5821 110.569 36.6867 110.293L60.3539 104.316C61.907 103.918 63.0007 102.504 63.0007 100.891V81.2268L48.0172 85.5464C47.5469 85.69 47.0548 85.7563 46.5626 85.7563ZM69.8143 73.361L64.1818 62.0042C63.8428 61.3193 63.11 60.9216 62.3554 61.021L35.0024 64.5451L45.0315 81.3484C45.4471 82.0443 46.2783 82.3758 47.0548 82.1548L68.6987 75.913C69.7815 75.5926 70.3064 74.3774 69.8143 73.361ZM5.82301 62.0042L0.190555 73.361C-0.312538 74.3774 0.223365 75.5926 1.29517 75.9019L22.9391 82.1438C23.7156 82.3647 24.5468 82.0333 24.9624 81.3373L35.0024 64.5451L7.63852 61.021C6.88388 60.9326 6.16205 61.3193 5.82301 62.0042Z" fill="#FFC632"/>
<path d="M42.0348 83.1712L42.8956 82.6622L42.8934 82.6585L42.0348 83.1712ZM35.0024 71.3946L35.861 70.8819L35.0018 69.443L34.1435 70.8825L35.0024 71.3946ZM27.981 83.1712L27.1221 82.6591L27.1212 82.6605L27.981 83.1712ZM21.9876 85.5574L22.2797 84.601L22.2725 84.5989L22.2653 84.5968L21.9876 85.5574ZM7.00419 81.2268L7.28185 80.2662L6.00419 79.8969V81.2268H7.00419ZM9.6509 104.316L9.89595 103.347L9.89249 103.346L9.6509 104.316ZM33.2963 110.293L33.0512 111.262L33.056 111.263L33.2963 110.293ZM36.6867 110.293L36.9293 111.263L36.9315 111.262L36.6867 110.293ZM60.3539 104.316L60.5988 105.286L60.602 105.285L60.3539 104.316ZM63.0007 81.2268H64.0007V79.8978L62.7236 80.266L63.0007 81.2268ZM48.0172 85.5464L47.7402 84.5855L47.7327 84.5877L47.7252 84.59L48.0172 85.5464ZM64.1818 62.0042L63.2856 62.4478L63.286 62.4485L64.1818 62.0042ZM62.3554 61.021L62.4832 62.0128L62.486 62.0124L62.3554 61.021ZM35.0024 64.5451L34.8746 63.5533L33.3622 63.7482L34.1437 65.0576L35.0024 64.5451ZM45.0315 81.3484L44.1728 81.8609L44.1729 81.861L45.0315 81.3484ZM47.0548 82.1548L47.3285 83.1166L47.3319 83.1157L47.0548 82.1548ZM68.6987 75.913L68.9758 76.8739L68.9825 76.8719L68.6987 75.913ZM0.190555 73.361L-0.705318 72.9167L-0.705661 72.9174L0.190555 73.361ZM1.29517 75.9019L1.01788 76.8627L1.01808 76.8628L1.29517 75.9019ZM22.9391 82.1438L22.662 83.1046L22.6654 83.1056L22.9391 82.1438ZM24.9624 81.3373L24.1041 80.8241L24.1039 80.8246L24.9624 81.3373ZM35.0024 64.5451L35.8607 65.0583L36.644 63.7483L35.1302 63.5533L35.0024 64.5451ZM7.63852 61.021L7.76627 60.0291L7.75484 60.0278L7.63852 61.021ZM46.5626 84.7563C45.0687 84.7563 43.6566 83.9494 42.8956 82.6623L41.174 83.6801C42.2941 85.5746 44.3599 86.7563 46.5626 86.7563V84.7563ZM42.8934 82.6585L35.861 70.8819L34.1439 71.9073L41.1762 83.6839L42.8934 82.6585ZM34.1435 70.8825L27.1221 82.6591L28.8399 83.6833L35.8613 71.9067L34.1435 70.8825ZM27.1212 82.6605C26.3483 83.9618 24.9344 84.7673 23.4422 84.7673V86.7673C25.6466 86.7673 27.7107 85.5843 28.8408 83.6819L27.1212 82.6605ZM23.4422 84.7673C23.039 84.7673 22.6462 84.713 22.2797 84.601L21.6955 86.5138C22.2696 86.6892 22.8611 86.7673 23.4422 86.7673V84.7673ZM22.2653 84.5968L7.28185 80.2662L6.72653 82.1875L21.71 86.5181L22.2653 84.5968ZM6.00419 81.2268V100.891H8.00419V81.2268H6.00419ZM6.00419 100.891C6.00419 102.966 7.40192 104.787 9.4093 105.286L9.89249 103.346C8.79382 103.072 8.00419 102.065 8.00419 100.891H6.00419ZM9.40584 105.286L33.0512 111.262L33.5413 109.323L9.89595 103.347L9.40584 105.286ZM33.056 111.263C34.3286 111.579 35.6646 111.579 36.9293 111.263L36.4441 109.323C35.4995 109.559 34.4951 109.559 33.5366 109.322L33.056 111.263ZM36.9315 111.262L60.5988 105.286L60.1091 103.347L36.4418 109.323L36.9315 111.262ZM60.602 105.285C62.6008 104.773 64.0007 102.958 64.0007 100.891H62.0007C62.0007 102.051 61.2132 103.064 60.1059 103.347L60.602 105.285ZM64.0007 100.891V81.2268H62.0007V100.891H64.0007ZM62.7236 80.266L47.7402 84.5855L48.2942 86.5073L63.2777 82.1877L62.7236 80.266ZM47.7252 84.59C47.3587 84.7019 46.9658 84.7563 46.5626 84.7563V86.7563C47.1437 86.7563 47.7352 86.6781 48.3093 86.5028L47.7252 84.59ZM70.7102 72.9167L65.0777 61.5599L63.286 62.4485L68.9184 73.8053L70.7102 72.9167ZM65.078 61.5606C64.5526 60.4991 63.4113 59.8732 62.2248 60.0296L62.486 62.0124C62.8087 61.9699 63.1329 62.1394 63.2856 62.4478L65.078 61.5606ZM62.2276 60.0292L34.8746 63.5533L35.1302 65.5369L62.4832 62.0128L62.2276 60.0292ZM34.1437 65.0576L44.1728 81.8609L45.8902 80.8358L35.8611 64.0326L34.1437 65.0576ZM44.1729 81.861C44.8192 82.9434 46.1137 83.4623 47.3285 83.1166L46.7811 81.193C46.4429 81.2892 46.0749 81.1453 45.8901 80.8357L44.1729 81.861ZM47.3319 83.1157L68.9758 76.8738L68.4216 74.9522L46.7777 81.194L47.3319 83.1157ZM68.9825 76.8719C70.6676 76.3733 71.4706 74.4871 70.7143 72.9252L68.9143 73.7969C69.1423 74.2677 68.8953 74.812 68.415 74.9541L68.9825 76.8719ZM4.92714 61.5599L-0.705317 72.9167L1.08643 73.8053L6.71888 62.4485L4.92714 61.5599ZM-0.705661 72.9174C-1.48226 74.4863 -0.6595 76.3786 1.01788 76.8627L1.57246 74.9412C1.10623 74.8066 0.85718 74.2685 1.08677 73.8046L-0.705661 72.9174ZM1.01808 76.8628L22.662 83.1046L23.2162 81.1829L1.57227 74.9411L1.01808 76.8628ZM22.6654 83.1056C23.8803 83.4513 25.1747 82.9324 25.821 81.85L24.1039 80.8246C23.919 81.1342 23.551 81.2782 23.2128 81.182L22.6654 83.1056ZM25.8207 81.8505L35.8607 65.0583L34.1441 64.032L24.1041 80.8241L25.8207 81.8505ZM35.1302 63.5533L7.76626 60.0292L7.51079 62.0128L34.8747 65.5369L35.1302 63.5533ZM7.75484 60.0278C6.5841 59.8907 5.45493 60.4936 4.9268 61.5606L6.71923 62.4478C6.86917 62.1449 7.18366 61.9746 7.5222 62.0142L7.75484 60.0278Z" fill="#E5E5E5" mask="url(#path-1-inside-1)"/>
<path d="M27.8219 46.2892L27.8217 46.289C27.5351 45.8542 27.3817 45.3421 27.3809 44.8185C27.3809 44.8185 27.3809 44.8185 27.3809 44.8184L27.3766 41.5362H41.9985L41.9951 44.8186C41.9945 45.3424 41.841 45.8539 41.5542 46.2891L41.5541 46.2892L39.8852 48.8234L39.8851 48.8235C39.6451 49.1881 39.32 49.4867 38.939 49.693C38.558 49.8992 38.1328 50.007 37.7012 50.007H31.6748C31.2432 50.007 30.818 49.8992 30.437 49.693C30.056 49.4867 29.7309 49.1882 29.4909 48.8235L29.4908 48.8234L27.8219 46.2892ZM22.1316 28.4549L22.1316 28.4549C19.5602 25.4915 18 21.6137 18 17.3615C18 8.43851 24.9701 0.529751 34.6353 0.500082L34.6353 0.500082C43.8713 0.471364 51.375 8.02639 51.375 17.3615C51.375 21.6137 49.8148 25.4915 47.2434 28.4549L47.2434 28.4549C45.6449 30.2973 43.173 34.0787 42.1288 37.3805H27.2462C26.202 34.0787 23.7301 30.2973 22.1316 28.4549ZM27.375 17.3615C27.375 13.2817 30.6608 9.96995 34.6875 9.96995C35.8317 9.96995 36.75 9.03504 36.75 7.89164C36.75 6.74824 35.8317 5.81333 34.6875 5.81333C28.3754 5.81333 23.25 10.9978 23.25 17.3615C23.25 18.5049 24.1683 19.4398 25.3125 19.4398C26.4567 19.4398 27.375 18.5049 27.375 17.3615Z" fill="#FFC632" stroke="#E5E5E5"/>
<path d="M97.3898 33.2H102.126V73.904H127.214V78H97.3898V33.2ZM135.077 33.2H139.813V78H135.077V33.2ZM185.942 55.6H190.486V72.688C188.395 74.5227 185.92 75.9307 183.062 76.912C180.203 77.8933 177.195 78.384 174.038 78.384C169.558 78.384 165.526 77.4027 161.942 75.44C158.358 73.4773 155.542 70.768 153.494 67.312C151.446 63.8133 150.422 59.9093 150.422 55.6C150.422 51.2907 151.446 47.408 153.494 43.952C155.542 40.4533 158.358 37.7227 161.942 35.76C165.526 33.7973 169.579 32.816 174.102 32.816C177.515 32.816 180.651 33.3707 183.51 34.48C186.368 35.5467 188.779 37.1467 190.742 39.28L187.798 42.288C184.256 38.7893 179.755 37.04 174.294 37.04C170.667 37.04 167.382 37.8507 164.438 39.472C161.536 41.0507 159.254 43.2693 157.59 46.128C155.926 48.944 155.094 52.1013 155.094 55.6C155.094 59.0987 155.926 62.256 157.59 65.072C159.254 67.888 161.536 70.1067 164.438 71.728C167.339 73.3493 170.603 74.16 174.23 74.16C178.838 74.16 182.742 73.008 185.942 70.704V55.6ZM241.33 33.2V78H236.658V57.328H208.626V78H203.89V33.2H208.626V53.168H236.658V33.2H241.33ZM264.656 37.296H248.912V33.2H285.136V37.296H269.392V78H264.656V37.296ZM320.926 54.896C323.87 55.536 326.132 56.816 327.71 58.736C329.332 60.6133 330.142 63.0453 330.142 66.032C330.142 69.872 328.713 72.8373 325.854 74.928C323.038 76.976 318.857 78 313.31 78H292.702V33.2H312.03C317.022 33.2 320.884 34.2027 323.614 36.208C326.388 38.2133 327.774 41.0507 327.774 44.72C327.774 47.1947 327.156 49.3067 325.918 51.056C324.724 52.7627 323.06 54.0427 320.926 54.896ZM297.438 37.104V53.36H311.71C315.337 53.36 318.132 52.6773 320.094 51.312C322.057 49.904 323.038 47.8773 323.038 45.232C323.038 42.5867 322.057 40.5813 320.094 39.216C318.132 37.808 315.337 37.104 311.71 37.104H297.438ZM313.246 74.096C317.257 74.096 320.286 73.4133 322.334 72.048C324.382 70.6827 325.406 68.5493 325.406 65.648C325.406 60.0587 321.353 57.264 313.246 57.264H297.438V74.096H313.246ZM360.536 78.384C356.099 78.384 352.067 77.4027 348.44 75.44C344.856 73.4347 342.04 70.704 339.992 67.248C337.987 63.792 336.984 59.9093 336.984 55.6C336.984 51.2907 337.987 47.408 339.992 43.952C342.04 40.496 344.856 37.7867 348.44 35.824C352.067 33.8187 356.099 32.816 360.536 32.816C364.974 32.816 368.963 33.7973 372.504 35.76C376.088 37.7227 378.904 40.4533 380.952 43.952C383 47.408 384.024 51.2907 384.024 55.6C384.024 59.9093 383 63.8133 380.952 67.312C378.904 70.768 376.088 73.4773 372.504 75.44C368.963 77.4027 364.974 78.384 360.536 78.384ZM360.536 74.16C364.078 74.16 367.278 73.3707 370.136 71.792C372.995 70.1707 375.235 67.952 376.856 65.136C378.478 62.2773 379.288 59.0987 379.288 55.6C379.288 52.1013 378.478 48.944 376.856 46.128C375.235 43.2693 372.995 41.0507 370.136 39.472C367.278 37.8507 364.078 37.04 360.536 37.04C356.995 37.04 353.774 37.8507 350.872 39.472C348.014 41.0507 345.752 43.2693 344.088 46.128C342.467 48.944 341.656 52.1013 341.656 55.6C341.656 59.0987 342.467 62.2773 344.088 65.136C345.752 67.952 348.014 70.1707 350.872 71.792C353.774 73.3707 356.995 74.16 360.536 74.16ZM421.111 78L406.647 58.288L392.247 78H386.807L403.831 54.96L387.895 33.2H393.335L406.839 51.504L420.279 33.2H425.399L409.527 54.832L426.615 78H421.111ZM460.469 37.296H444.725V33.2H480.949V37.296H465.205V78H460.469V37.296ZM514.673 78L500.209 58.288L485.809 78H480.369L497.393 54.96L481.457 33.2H486.897L500.401 51.504L513.841 33.2H518.961L503.089 54.832L520.177 78H514.673ZM536.385 51.568C542.871 51.568 547.585 52.7413 550.529 55.088C553.516 57.392 555.009 60.6347 555.009 64.816C555.009 67.4187 554.391 69.744 553.153 71.792C551.959 73.84 550.145 75.4613 547.713 76.656C545.281 77.808 542.295 78.384 538.753 78.384C535.553 78.384 532.503 77.872 529.601 76.848C526.743 75.7813 524.439 74.3733 522.689 72.624L524.929 68.976C526.423 70.512 528.385 71.7707 530.817 72.752C533.249 73.6907 535.873 74.16 538.689 74.16C542.401 74.16 545.26 73.328 547.265 71.664C549.313 70 550.337 67.7813 550.337 65.008C550.337 61.936 549.185 59.6107 546.881 58.032C544.62 56.4533 540.78 55.664 535.361 55.664H525.825L528.129 33.2H552.641V37.296H532.161L530.625 51.568H536.385ZM578.715 78.384C575.259 78.384 572.166 77.4667 569.435 75.632C566.747 73.7973 564.635 71.1733 563.099 67.76C561.606 64.304 560.859 60.2507 560.859 55.6C560.859 50.9493 561.606 46.9173 563.099 43.504C564.635 40.048 566.747 37.4027 569.435 35.568C572.166 33.7333 575.259 32.816 578.715 32.816C582.171 32.816 585.243 33.7333 587.931 35.568C590.662 37.4027 592.795 40.048 594.331 43.504C595.867 46.9173 596.635 50.9493 596.635 55.6C596.635 60.2507 595.867 64.304 594.331 67.76C592.795 71.1733 590.662 73.7973 587.931 75.632C585.243 77.4667 582.171 78.384 578.715 78.384ZM578.715 74.16C581.318 74.16 583.601 73.4347 585.563 71.984C587.569 70.5333 589.126 68.4213 590.235 65.648C591.345 62.8747 591.899 59.5253 591.899 55.6C591.899 51.6747 591.345 48.3253 590.235 45.552C589.126 42.7787 587.569 40.6667 585.563 39.216C583.601 37.7653 581.318 37.04 578.715 37.04C576.113 37.04 573.809 37.7653 571.803 39.216C569.841 40.6667 568.305 42.7787 567.195 45.552C566.086 48.3253 565.531 51.6747 565.531 55.6C565.531 59.5253 566.086 62.8747 567.195 65.648C568.305 68.4213 569.841 70.5333 571.803 71.984C573.809 73.4347 576.113 74.16 578.715 74.16Z" fill="#FFE177"/>
<path d="M97.3898 33.2V32.2H96.3898V33.2H97.3898ZM102.126 33.2H103.126V32.2H102.126V33.2ZM102.126 73.904H101.126V74.904H102.126V73.904ZM127.214 73.904H128.214V72.904H127.214V73.904ZM127.214 78V79H128.214V78H127.214ZM97.3898 78H96.3898V79H97.3898V78ZM97.3898 34.2H102.126V32.2H97.3898V34.2ZM101.126 33.2V73.904H103.126V33.2H101.126ZM102.126 74.904H127.214V72.904H102.126V74.904ZM126.214 73.904V78H128.214V73.904H126.214ZM127.214 77H97.3898V79H127.214V77ZM98.3898 78V33.2H96.3898V78H98.3898ZM135.077 33.2V32.2H134.077V33.2H135.077ZM139.813 33.2H140.813V32.2H139.813V33.2ZM139.813 78V79H140.813V78H139.813ZM135.077 78H134.077V79H135.077V78ZM135.077 34.2H139.813V32.2H135.077V34.2ZM138.813 33.2V78H140.813V33.2H138.813ZM139.813 77H135.077V79H139.813V77ZM136.077 78V33.2H134.077V78H136.077ZM185.942 55.6V54.6H184.942V55.6H185.942ZM190.486 55.6H191.486V54.6H190.486V55.6ZM190.486 72.688L191.145 73.4396L191.486 73.1409V72.688H190.486ZM183.062 76.912L183.386 77.8578L183.062 76.912ZM161.942 75.44L162.422 74.5629L161.942 75.44ZM153.494 67.312L152.631 67.8172L152.633 67.8218L153.494 67.312ZM153.494 43.952L154.354 44.4618L154.357 44.4572L153.494 43.952ZM183.51 34.48L183.148 35.4123L183.16 35.4169L183.51 34.48ZM190.742 39.28L191.456 39.9795L192.12 39.3013L191.478 38.6029L190.742 39.28ZM187.798 42.288L187.095 42.9994L187.81 43.7055L188.512 42.9875L187.798 42.288ZM164.438 39.472L164.916 40.3504L164.92 40.3479L164.438 39.472ZM157.59 46.128L158.451 46.6367L158.454 46.6311L157.59 46.128ZM164.438 71.728L164.926 70.8551L164.438 71.728ZM185.942 70.704L186.526 71.5155L186.942 71.2162V70.704H185.942ZM185.942 56.6H190.486V54.6H185.942V56.6ZM189.486 55.6V72.688H191.486V55.6H189.486ZM189.826 71.9364C187.842 73.6779 185.483 75.0235 182.737 75.9662L183.386 77.8578C186.358 76.8379 188.949 75.3674 191.145 73.4396L189.826 71.9364ZM182.737 75.9662C179.988 76.9101 177.09 77.384 174.038 77.384V79.384C177.301 79.384 180.419 78.8766 183.386 77.8578L182.737 75.9662ZM174.038 77.384C169.709 77.384 165.845 76.4373 162.422 74.5629L161.461 76.3171C165.207 78.368 169.406 79.384 174.038 79.384V77.384ZM162.422 74.5629C158.993 72.6848 156.309 70.1011 154.354 66.8022L152.633 67.8218C154.775 71.4349 157.723 74.2698 161.461 76.3171L162.422 74.5629ZM154.357 66.8068C152.404 63.4711 151.422 59.7434 151.422 55.6H149.422C149.422 60.0753 150.487 64.1555 152.631 67.8172L154.357 66.8068ZM151.422 55.6C151.422 51.4565 152.404 47.7522 154.354 44.4618L152.633 43.4422C150.487 47.0638 149.422 51.1248 149.422 55.6H151.422ZM154.357 44.4572C156.312 41.1162 158.996 38.5135 162.422 36.6371L161.461 34.8829C157.72 36.9319 154.771 39.7905 152.631 43.4468L154.357 44.4572ZM162.422 36.6371C165.844 34.7634 169.729 33.816 174.102 33.816V31.816C169.43 31.816 165.208 32.8312 161.461 34.8829L162.422 36.6371ZM174.102 33.816C177.405 33.816 180.417 34.3525 183.148 35.4123L183.872 33.5477C180.885 32.3888 177.625 31.816 174.102 31.816V33.816ZM183.16 35.4169C185.879 36.4315 188.155 37.9456 190.006 39.9571L191.478 38.6029C189.403 36.3477 186.857 34.6618 183.859 33.5431L183.16 35.4169ZM190.027 38.5805L187.083 41.5885L188.512 42.9875L191.456 39.9795L190.027 38.5805ZM188.501 41.5766C184.753 37.8742 179.99 36.04 174.294 36.04V38.04C179.52 38.04 183.76 39.7044 187.095 42.9994L188.501 41.5766ZM174.294 36.04C170.512 36.04 167.059 36.887 163.955 38.596L164.92 40.3479C167.705 38.8144 170.822 38.04 174.294 38.04V36.04ZM163.96 38.5936C160.898 40.2598 158.481 42.6084 156.726 45.6249L158.454 46.6311C160.026 43.9302 162.175 41.8415 164.916 40.3504L163.96 38.5936ZM156.729 45.6193C154.967 48.6001 154.094 51.9353 154.094 55.6H156.094C156.094 52.2674 156.884 49.2879 158.451 46.6367L156.729 45.6193ZM154.094 55.6C154.094 59.2647 154.967 62.5999 156.729 65.5807L158.451 64.5633C156.884 61.9121 156.094 58.9326 156.094 55.6H154.094ZM156.729 65.5807C158.484 68.5515 160.897 70.8948 163.95 72.6009L164.926 70.8551C162.176 69.3185 160.023 67.2245 158.451 64.5633L156.729 65.5807ZM163.95 72.6009C167.014 74.3131 170.448 75.16 174.23 75.16V73.16C170.758 73.16 167.664 72.3856 164.926 70.8551L163.95 72.6009ZM174.23 75.16C179.011 75.16 183.128 73.9618 186.526 71.5155L185.357 69.8925C182.355 72.0542 178.665 73.16 174.23 73.16V75.16ZM186.942 70.704V55.6H184.942V70.704H186.942ZM241.33 33.2H242.33V32.2H241.33V33.2ZM241.33 78V79H242.33V78H241.33ZM236.658 78H235.658V79H236.658V78ZM236.658 57.328H237.658V56.328H236.658V57.328ZM208.626 57.328V56.328H207.626V57.328H208.626ZM208.626 78V79H209.626V78H208.626ZM203.89 78H202.89V79H203.89V78ZM203.89 33.2V32.2H202.89V33.2H203.89ZM208.626 33.2H209.626V32.2H208.626V33.2ZM208.626 53.168H207.626V54.168H208.626V53.168ZM236.658 53.168V54.168H237.658V53.168H236.658ZM236.658 33.2V32.2H235.658V33.2H236.658ZM240.33 33.2V78H242.33V33.2H240.33ZM241.33 77H236.658V79H241.33V77ZM237.658 78V57.328H235.658V78H237.658ZM236.658 56.328H208.626V58.328H236.658V56.328ZM207.626 57.328V78H209.626V57.328H207.626ZM208.626 77H203.89V79H208.626V77ZM204.89 78V33.2H202.89V78H204.89ZM203.89 34.2H208.626V32.2H203.89V34.2ZM207.626 33.2V53.168H209.626V33.2H207.626ZM208.626 54.168H236.658V52.168H208.626V54.168ZM237.658 53.168V33.2H235.658V53.168H237.658ZM236.658 34.2H241.33V32.2H236.658V34.2ZM264.656 37.296H265.656V36.296H264.656V37.296ZM248.912 37.296H247.912V38.296H248.912V37.296ZM248.912 33.2V32.2H247.912V33.2H248.912ZM285.136 33.2H286.136V32.2H285.136V33.2ZM285.136 37.296V38.296H286.136V37.296H285.136ZM269.392 37.296V36.296H268.392V37.296H269.392ZM269.392 78V79H270.392V78H269.392ZM264.656 78H263.656V79H264.656V78ZM264.656 36.296H248.912V38.296H264.656V36.296ZM249.912 37.296V33.2H247.912V37.296H249.912ZM248.912 34.2H285.136V32.2H248.912V34.2ZM284.136 33.2V37.296H286.136V33.2H284.136ZM285.136 36.296H269.392V38.296H285.136V36.296ZM268.392 37.296V78H270.392V37.296H268.392ZM269.392 77H264.656V79H269.392V77ZM265.656 78V37.296H263.656V78H265.656ZM320.926 54.896L320.555 53.9675L317.524 55.1798L320.714 55.8732L320.926 54.896ZM327.71 58.736L326.938 59.3711L326.946 59.3805L326.953 59.3896L327.71 58.736ZM325.854 74.928L326.442 75.7367L326.445 75.7352L325.854 74.928ZM292.702 78H291.702V79H292.702V78ZM292.702 33.2V32.2H291.702V33.2H292.702ZM323.614 36.208L323.022 37.014L323.028 37.0183L323.614 36.208ZM325.918 51.056L325.102 50.4785L325.099 50.4825L325.918 51.056ZM297.438 37.104V36.104H296.438V37.104H297.438ZM297.438 53.36H296.438V54.36H297.438V53.36ZM320.094 51.312L320.665 52.1329L320.671 52.1288L320.677 52.1245L320.094 51.312ZM320.094 39.216L319.511 40.0285L319.517 40.0328L319.523 40.0369L320.094 39.216ZM297.438 57.264V56.264H296.438V57.264H297.438ZM297.438 74.096H296.438V75.096H297.438V74.096ZM320.714 55.8732C323.486 56.4758 325.53 57.6594 326.938 59.3711L328.483 58.1009C326.733 55.9726 324.254 54.5962 321.139 53.9188L320.714 55.8732ZM326.953 59.3896C328.387 61.05 329.142 63.2341 329.142 66.032H331.142C331.142 62.8566 330.276 60.1767 328.467 58.0824L326.953 59.3896ZM329.142 66.032C329.142 69.5843 327.841 72.2362 325.264 74.1208L326.445 75.7352C329.585 73.4384 331.142 70.1597 331.142 66.032H329.142ZM325.266 74.1193C322.695 75.9888 318.761 77 313.31 77V79C318.952 79 323.381 77.9632 326.442 75.7367L325.266 74.1193ZM313.31 77H292.702V79H313.31V77ZM293.702 78V33.2H291.702V78H293.702ZM292.702 34.2H312.03V32.2H292.702V34.2ZM312.03 34.2C316.906 34.2 320.527 35.1817 323.022 37.014L324.206 35.402C321.24 33.2236 317.139 32.2 312.03 32.2V34.2ZM323.028 37.0183C325.52 38.8203 326.774 41.3445 326.774 44.72H328.774C328.774 40.7569 327.255 37.6063 324.2 35.3976L323.028 37.0183ZM326.774 44.72C326.774 47.0209 326.202 48.9232 325.102 50.4785L326.735 51.6335C328.109 49.6901 328.774 47.3684 328.774 44.72H326.774ZM325.099 50.4825C324.027 52.0136 322.527 53.1787 320.555 53.9675L321.298 55.8245C323.592 54.9066 325.42 53.5117 326.737 51.6295L325.099 50.4825ZM296.438 37.104V53.36H298.438V37.104H296.438ZM297.438 54.36H311.71V52.36H297.438V54.36ZM311.71 54.36C315.442 54.36 318.469 53.6609 320.665 52.1329L319.523 50.4911C317.794 51.6938 315.232 52.36 311.71 52.36V54.36ZM320.677 52.1245C322.929 50.5088 324.038 48.1638 324.038 45.232H322.038C322.038 47.5908 321.184 49.2992 319.511 50.4995L320.677 52.1245ZM324.038 45.232C324.038 42.3 322.928 39.9695 320.665 38.3951L319.523 40.0369C321.185 41.1932 322.038 42.8733 322.038 45.232H324.038ZM320.677 38.4035C318.479 36.8263 315.447 36.104 311.71 36.104V38.104C315.227 38.104 317.784 38.7897 319.511 40.0285L320.677 38.4035ZM311.71 36.104H297.438V38.104H311.71V36.104ZM313.246 75.096C317.342 75.096 320.603 74.4041 322.889 72.8801L321.78 71.216C319.97 72.4226 317.172 73.096 313.246 73.096V75.096ZM322.889 72.8801C325.268 71.294 326.406 68.8146 326.406 65.648H324.406C324.406 68.284 323.496 70.0714 321.78 71.216L322.889 72.8801ZM326.406 65.648C326.406 62.5762 325.271 60.1482 322.934 58.5367C320.664 56.9715 317.384 56.264 313.246 56.264V58.264C317.216 58.264 320.015 58.9538 321.799 60.1833C323.515 61.3664 324.406 63.1305 324.406 65.648H326.406ZM313.246 56.264H297.438V58.264H313.246V56.264ZM296.438 57.264V74.096H298.438V57.264H296.438ZM297.438 75.096H313.246V73.096H297.438V75.096ZM348.44 75.44L347.952 76.3128L347.964 76.3195L348.44 75.44ZM339.992 67.248L339.127 67.7499L339.132 67.7578L339.992 67.248ZM339.992 43.952L339.132 43.4422L339.127 43.4501L339.992 43.952ZM348.44 35.824L348.921 36.7011L348.924 36.6991L348.44 35.824ZM372.504 35.76L372.02 36.6347L372.024 36.6371L372.504 35.76ZM380.952 43.952L380.089 44.4572L380.092 44.4618L380.952 43.952ZM380.952 67.312L381.813 67.8218L381.815 67.8172L380.952 67.312ZM372.504 75.44L372.024 74.5629L372.02 74.5653L372.504 75.44ZM370.136 71.792L370.62 72.6674L370.63 72.6618L370.136 71.792ZM376.856 65.136L377.723 65.635L377.726 65.6293L376.856 65.136ZM376.856 46.128L375.986 46.6213L375.99 46.627L376.856 46.128ZM370.136 39.472L369.643 40.3419L369.653 40.3474L370.136 39.472ZM350.872 39.472L351.356 40.3474L351.36 40.3449L350.872 39.472ZM344.088 46.128L343.224 45.6249L343.222 45.629L344.088 46.128ZM344.088 65.136L343.218 65.6293L343.223 65.6371L343.227 65.6447L344.088 65.136ZM350.872 71.792L350.379 72.6618L350.387 72.6662L350.394 72.6704L350.872 71.792ZM360.536 77.384C356.252 77.384 352.386 76.4381 348.916 74.5605L347.964 76.3195C351.748 78.3672 355.946 79.384 360.536 79.384V77.384ZM348.929 74.5673C345.495 72.646 342.809 70.0391 340.853 66.7382L339.132 67.7578C341.272 71.3689 344.218 74.2233 347.952 76.3127L348.929 74.5673ZM340.857 66.7461C338.947 63.4545 337.984 59.7474 337.984 55.6H335.984C335.984 60.0713 337.027 64.1295 339.127 67.7499L340.857 66.7461ZM337.984 55.6C337.984 51.4526 338.947 47.7455 340.857 44.4539L339.127 43.4501C337.027 47.0705 335.984 51.1287 335.984 55.6H337.984ZM340.853 44.4618C342.807 41.1629 345.491 38.5792 348.921 36.7011L347.96 34.9469C344.221 36.9942 341.273 39.8291 339.132 43.4422L340.853 44.4618ZM348.924 36.6991C352.392 34.7815 356.256 33.816 360.536 33.816V31.816C355.942 31.816 351.742 32.8559 347.956 34.9489L348.924 36.6991ZM360.536 33.816C364.821 33.816 368.64 34.7619 372.02 36.6347L372.989 34.8853C369.285 32.8327 365.126 31.816 360.536 31.816V33.816ZM372.024 36.6371C375.45 38.5135 378.134 41.1162 380.089 44.4572L381.815 43.4468C379.675 39.7905 376.726 36.9319 372.985 34.8829L372.024 36.6371ZM380.092 44.4618C382.042 47.7522 383.024 51.4565 383.024 55.6H385.024C385.024 51.1248 383.959 47.0638 381.813 43.4422L380.092 44.4618ZM383.024 55.6C383.024 59.7434 382.042 63.4711 380.089 66.8068L381.815 67.8172C383.959 64.1555 385.024 60.0753 385.024 55.6H383.024ZM380.092 66.8022C378.137 70.1011 375.453 72.6848 372.024 74.5629L372.985 76.3171C376.723 74.2698 379.671 71.4349 381.813 67.8218L380.092 66.8022ZM372.02 74.5653C368.64 76.4381 364.821 77.384 360.536 77.384V79.384C365.126 79.384 369.285 78.3673 372.989 76.3147L372.02 74.5653ZM360.536 75.16C364.232 75.16 367.601 74.3346 370.62 72.6674L369.653 70.9166C366.954 72.4067 363.923 73.16 360.536 73.16V75.16ZM370.63 72.6618C373.642 70.9535 376.011 68.6075 377.723 65.635L375.99 64.637C374.458 67.2965 372.348 69.3879 369.643 70.9222L370.63 72.6618ZM377.726 65.6293C379.438 62.6105 380.288 59.26 380.288 55.6H378.288C378.288 58.9373 377.517 61.9442 375.986 64.6427L377.726 65.6293ZM380.288 55.6C380.288 51.9401 379.438 48.6084 377.723 45.629L375.99 46.627C377.517 49.2796 378.288 52.2626 378.288 55.6H380.288ZM377.726 45.6347C376.014 42.6165 373.641 40.2651 370.62 38.5966L369.653 40.3474C372.349 41.8362 374.456 43.9222 375.986 46.6213L377.726 45.6347ZM370.63 38.6022C367.609 36.8889 364.237 36.04 360.536 36.04V38.04C363.918 38.04 366.946 38.8124 369.643 40.3418L370.63 38.6022ZM360.536 36.04C356.836 36.04 353.445 36.8889 350.384 38.5991L351.36 40.3449C354.103 38.8124 357.154 38.04 360.536 38.04V36.04ZM350.389 38.5966C347.37 40.2639 344.978 42.6121 343.224 45.6249L344.952 46.6311C346.527 43.9265 348.657 41.8375 351.356 40.3474L350.389 38.5966ZM343.222 45.629C341.506 48.6084 340.656 51.9401 340.656 55.6H342.656C342.656 52.2626 343.428 49.2796 344.955 46.627L343.222 45.629ZM340.656 55.6C340.656 59.26 341.506 62.6105 343.218 65.6293L344.958 64.6427C343.428 61.9442 342.656 58.9373 342.656 55.6H340.656ZM343.227 65.6447C344.981 68.6119 347.369 70.9547 350.379 72.6618L351.366 70.9222C348.658 69.3866 346.524 67.2921 344.949 64.6273L343.227 65.6447ZM350.394 72.6704C353.453 74.3346 356.84 75.16 360.536 75.16V73.16C357.149 73.16 354.094 72.4067 351.35 70.9136L350.394 72.6704ZM421.111 78L420.305 78.5916L420.604 79H421.111V78ZM406.647 58.288L407.453 57.6964L406.645 56.5952L405.839 57.6981L406.647 58.288ZM392.247 78V79H392.755L393.054 78.5899L392.247 78ZM386.807 78L386.002 77.4057L384.824 79H386.807V78ZM403.831 54.96L404.635 55.5543L405.072 54.9626L404.638 54.3691L403.831 54.96ZM387.895 33.2V32.2H385.923L387.088 33.7908L387.895 33.2ZM393.335 33.2L394.139 32.6063L393.84 32.2H393.335V33.2ZM406.839 51.504L406.034 52.0977L406.841 53.191L407.645 52.0959L406.839 51.504ZM420.279 33.2V32.2H419.772L419.473 32.6081L420.279 33.2ZM425.399 33.2L426.205 33.7916L427.373 32.2H425.399V33.2ZM409.527 54.832L408.72 54.2404L408.285 54.8335L408.722 55.4256L409.527 54.832ZM426.615 78V79H428.595L427.42 77.4064L426.615 78ZM421.917 77.4084L407.453 57.6964L405.841 58.8796L420.305 78.5916L421.917 77.4084ZM405.839 57.6981L391.439 77.4101L393.054 78.5899L407.454 58.8779L405.839 57.6981ZM392.247 77H386.807V79H392.247V77ZM387.611 78.5943L404.635 55.5543L403.026 54.3657L386.002 77.4057L387.611 78.5943ZM404.638 54.3691L388.702 32.6091L387.088 33.7908L403.024 55.5508L404.638 54.3691ZM387.895 34.2H393.335V32.2H387.895V34.2ZM392.53 33.7937L406.034 52.0977L407.643 50.9103L394.139 32.6063L392.53 33.7937ZM407.645 52.0959L421.085 33.7918L419.473 32.6081L406.033 50.9121L407.645 52.0959ZM420.279 34.2H425.399V32.2H420.279V34.2ZM424.592 32.6084L408.72 54.2404L410.333 55.4236L426.205 33.7916L424.592 32.6084ZM408.722 55.4256L425.81 78.5936L427.42 77.4064L410.332 54.2384L408.722 55.4256ZM426.615 77H421.111V79H426.615V77ZM460.469 37.296H461.469V36.296H460.469V37.296ZM444.725 37.296H443.725V38.296H444.725V37.296ZM444.725 33.2V32.2H443.725V33.2H444.725ZM480.949 33.2H481.949V32.2H480.949V33.2ZM480.949 37.296V38.296H481.949V37.296H480.949ZM465.205 37.296V36.296H464.205V37.296H465.205ZM465.205 78V79H466.205V78H465.205ZM460.469 78H459.469V79H460.469V78ZM460.469 36.296H444.725V38.296H460.469V36.296ZM445.725 37.296V33.2H443.725V37.296H445.725ZM444.725 34.2H480.949V32.2H444.725V34.2ZM479.949 33.2V37.296H481.949V33.2H479.949ZM480.949 36.296H465.205V38.296H480.949V36.296ZM464.205 37.296V78H466.205V37.296H464.205ZM465.205 77H460.469V79H465.205V77ZM461.469 78V37.296H459.469V78H461.469ZM514.673 78L513.867 78.5916L514.167 79H514.673V78ZM500.209 58.288L501.016 57.6964L500.207 56.5952L499.402 57.6981L500.209 58.288ZM485.809 78V79H486.317L486.617 78.5899L485.809 78ZM480.369 78L479.565 77.4057L478.387 79H480.369V78ZM497.393 54.96L498.198 55.5543L498.635 54.9626L498.2 54.3691L497.393 54.96ZM481.457 33.2V32.2H479.485L480.65 33.7908L481.457 33.2ZM486.897 33.2L487.702 32.6063L487.402 32.2H486.897V33.2ZM500.401 51.504L499.597 52.0977L500.403 53.191L501.207 52.0959L500.401 51.504ZM513.841 33.2V32.2H513.335L513.035 32.6081L513.841 33.2ZM518.961 33.2L519.768 33.7916L520.935 32.2H518.961V33.2ZM503.089 54.832L502.283 54.2404L501.848 54.8335L502.284 55.4256L503.089 54.832ZM520.177 78V79H522.157L520.982 77.4064L520.177 78ZM515.479 77.4084L501.016 57.6964L499.403 58.8796L513.867 78.5916L515.479 77.4084ZM499.402 57.6981L485.002 77.4101L486.617 78.5899L501.017 58.8779L499.402 57.6981ZM485.809 77H480.369V79H485.809V77ZM481.174 78.5943L498.198 55.5543L496.589 54.3657L479.565 77.4057L481.174 78.5943ZM498.2 54.3691L482.264 32.6091L480.65 33.7908L496.586 55.5508L498.2 54.3691ZM481.457 34.2H486.897V32.2H481.457V34.2ZM486.093 33.7937L499.597 52.0977L501.206 50.9103L487.702 32.6063L486.093 33.7937ZM501.207 52.0959L514.647 33.7918L513.035 32.6081L499.595 50.9121L501.207 52.0959ZM513.841 34.2H518.961V32.2H513.841V34.2ZM518.155 32.6084L502.283 54.2404L503.896 55.4236L519.768 33.7916L518.155 32.6084ZM502.284 55.4256L519.372 78.5936L520.982 77.4064L503.894 54.2384L502.284 55.4256ZM520.177 77H514.673V79H520.177V77ZM550.529 55.088L549.906 55.87L549.912 55.8749L549.918 55.8798L550.529 55.088ZM553.153 71.792L552.297 71.2749L552.293 71.2815L552.289 71.2881L553.153 71.792ZM547.713 76.656L548.141 77.5597L548.148 77.5567L548.154 77.5536L547.713 76.656ZM529.601 76.848L529.252 77.7849L529.26 77.788L529.268 77.791L529.601 76.848ZM522.689 72.624L521.837 72.1007L521.424 72.7732L521.982 73.3311L522.689 72.624ZM524.929 68.976L525.646 68.2789L524.75 67.357L524.077 68.4527L524.929 68.976ZM530.817 72.752L530.443 73.6794L530.45 73.6822L530.457 73.6849L530.817 72.752ZM547.265 71.664L546.635 70.8878L546.627 70.8944L547.265 71.664ZM546.881 58.032L546.309 58.852L546.316 58.8569L546.881 58.032ZM525.825 55.664L524.83 55.562L524.717 56.664H525.825V55.664ZM528.129 33.2V32.2H527.227L527.134 33.098L528.129 33.2ZM552.641 33.2H553.641V32.2H552.641V33.2ZM552.641 37.296V38.296H553.641V37.296H552.641ZM532.161 37.296V36.296H531.263L531.167 37.189L532.161 37.296ZM530.625 51.568L529.631 51.461L529.512 52.568H530.625V51.568ZM536.385 52.568C542.792 52.568 547.228 53.7351 549.906 55.87L551.153 54.306C547.943 51.7476 542.949 50.568 536.385 50.568V52.568ZM549.918 55.8798C552.631 57.9721 554.009 60.9061 554.009 64.816H556.009C556.009 60.3632 554.401 56.8119 551.14 54.2962L549.918 55.8798ZM554.009 64.816C554.009 67.2529 553.432 69.3965 552.297 71.2749L554.009 72.3091C555.349 70.0915 556.009 67.5844 556.009 64.816H554.009ZM552.289 71.2881C551.208 73.1428 549.554 74.6378 547.272 75.7584L548.154 77.5536C550.737 76.2849 552.71 74.5372 554.017 72.2959L552.289 71.2881ZM547.285 75.7523C545.022 76.8242 542.191 77.384 538.753 77.384V79.384C542.398 79.384 545.54 78.7918 548.141 77.5597L547.285 75.7523ZM538.753 77.384C535.662 77.384 532.724 76.8898 529.934 75.905L529.268 77.791C532.281 78.8542 535.444 79.384 538.753 79.384V77.384ZM529.951 75.9111C527.196 74.8831 525.024 73.5441 523.396 71.9169L521.982 73.3311C523.854 75.2025 526.289 76.6795 529.252 77.7849L529.951 75.9111ZM523.541 73.1473L525.781 69.4993L524.077 68.4527L521.837 72.1007L523.541 73.1473ZM524.212 69.6731C525.822 71.3286 527.91 72.6573 530.443 73.6794L531.191 71.8246C528.86 70.884 527.023 69.6954 525.646 68.2789L524.212 69.6731ZM530.457 73.6849C533.013 74.6714 535.76 75.16 538.689 75.16V73.16C535.986 73.16 533.486 72.71 531.177 71.8191L530.457 73.6849ZM538.689 75.16C542.537 75.16 545.656 74.2986 547.904 72.4336L546.627 70.8944C544.864 72.3574 542.265 73.16 538.689 73.16V75.16ZM547.896 72.4401C550.191 70.5753 551.337 68.0648 551.337 65.008H549.337C549.337 67.4979 548.436 69.4247 546.635 70.8879L547.896 72.4401ZM551.337 65.008C551.337 61.6448 550.053 58.993 547.446 57.2071L546.316 58.8569C548.317 60.2283 549.337 62.2272 549.337 65.008H551.337ZM547.454 57.212C544.927 55.4479 540.819 54.664 535.361 54.664V56.664C540.741 56.664 544.313 57.4587 546.309 58.852L547.454 57.212ZM535.361 54.664H525.825V56.664H535.361V54.664ZM526.82 55.766L529.124 33.302L527.134 33.098L524.83 55.562L526.82 55.766ZM528.129 34.2H552.641V32.2H528.129V34.2ZM551.641 33.2V37.296H553.641V33.2H551.641ZM552.641 36.296H532.161V38.296H552.641V36.296ZM531.167 37.189L529.631 51.461L531.62 51.675L533.156 37.403L531.167 37.189ZM530.625 52.568H536.385V50.568H530.625V52.568ZM569.435 75.632L568.871 76.458L568.878 76.4621L569.435 75.632ZM563.099 67.76L562.181 68.1567L562.184 68.1635L562.187 68.1704L563.099 67.76ZM563.099 43.504L562.185 43.0979L562.183 43.1032L563.099 43.504ZM569.435 35.568L568.878 34.7379L568.872 34.742L569.435 35.568ZM587.931 35.568L587.367 36.394L587.374 36.398L587.931 35.568ZM594.331 43.504L593.417 43.9101L593.419 43.9144L594.331 43.504ZM594.331 67.76L595.243 68.1704L595.245 68.1661L594.331 67.76ZM587.931 75.632L587.374 74.8019L587.367 74.806L587.931 75.632ZM585.563 71.984L584.977 71.1737L584.969 71.1798L585.563 71.984ZM590.235 65.648L591.164 66.0194L590.235 65.648ZM590.235 45.552L591.164 45.1806V45.1806L590.235 45.552ZM585.563 39.216L584.969 40.0202L584.977 40.0262L585.563 39.216ZM571.803 39.216L571.217 38.4057L571.209 38.4118L571.803 39.216ZM567.195 45.552L568.124 45.9234L567.195 45.552ZM567.195 65.648L568.124 65.2766L567.195 65.648ZM571.803 71.984L571.209 72.7882L571.217 72.7942L571.803 71.984ZM578.715 77.384C575.447 77.384 572.55 76.5201 569.993 74.8019L568.878 76.4621C571.782 78.4133 575.071 79.384 578.715 79.384V77.384ZM569.999 74.806C567.485 73.09 565.483 70.6207 564.011 67.3496L562.187 68.1704C563.787 71.7259 566.01 74.5046 568.872 76.458L569.999 74.806ZM564.017 67.3633C562.589 64.0584 561.859 60.1454 561.859 55.6H559.859C559.859 60.3559 560.623 64.5496 562.181 68.1567L564.017 67.3633ZM561.859 55.6C561.859 51.0541 562.589 47.1645 564.015 43.9048L562.183 43.1032C560.623 46.6701 559.859 50.8446 559.859 55.6H561.859ZM564.013 43.9101C565.486 40.5959 567.488 38.1079 569.999 36.3939L568.872 34.742C566.007 36.6974 563.784 39.5001 562.185 43.0979L564.013 43.9101ZM569.993 36.398C572.55 34.6799 575.447 33.816 578.715 33.816V31.816C575.071 31.816 571.782 32.7867 568.878 34.7379L569.993 36.398ZM578.715 33.816C581.983 33.816 584.856 34.6799 587.368 36.3939L588.495 34.742C585.63 32.7868 582.359 31.816 578.715 31.816V33.816ZM587.374 36.398C589.926 38.1128 591.946 40.5998 593.417 43.9101L595.245 43.0979C593.644 39.4962 591.398 36.6926 588.489 34.7379L587.374 36.398ZM593.419 43.9144C594.885 47.1714 595.635 51.0575 595.635 55.6H597.635C597.635 50.8412 596.85 46.6633 595.243 43.0936L593.419 43.9144ZM595.635 55.6C595.635 60.1421 594.885 64.0515 593.417 67.3539L595.245 68.1661C596.849 64.5565 597.635 60.3593 597.635 55.6H595.635ZM593.419 67.3496C591.949 70.6168 589.929 73.0851 587.374 74.8019L588.489 76.4621C591.395 74.5095 593.641 71.7299 595.243 68.1704L593.419 67.3496ZM587.367 74.806C584.856 76.5201 581.983 77.384 578.715 77.384V79.384C582.359 79.384 585.63 78.4132 588.495 76.458L587.367 74.806ZM578.715 75.16C581.517 75.16 584.011 74.3747 586.158 72.7882L584.969 71.1798C583.19 72.4946 581.119 73.16 578.715 73.16V75.16ZM586.149 72.7942C588.337 71.2116 589.999 68.9318 591.164 66.0194L589.307 65.2766C588.253 67.9108 586.8 69.8551 584.977 71.1738L586.149 72.7942ZM591.164 66.0194C592.333 63.0972 592.899 59.6147 592.899 55.6H590.899C590.899 59.436 590.357 62.6521 589.307 65.2766L591.164 66.0194ZM592.899 55.6C592.899 51.5853 592.333 48.1028 591.164 45.1806L589.307 45.9234C590.357 48.5479 590.899 51.764 590.899 55.6H592.899ZM591.164 45.1806C589.999 42.2682 588.337 39.9884 586.149 38.4058L584.977 40.0262C586.8 41.3449 588.253 43.2892 589.307 45.9234L591.164 45.1806ZM586.158 38.4118C584.011 36.8253 581.517 36.04 578.715 36.04V38.04C581.119 38.04 583.19 38.7054 584.969 40.0202L586.158 38.4118ZM578.715 36.04C575.914 36.04 573.402 36.8251 571.217 38.4058L572.389 40.0262C574.215 38.7055 576.312 38.04 578.715 38.04V36.04ZM571.209 38.4118C569.067 39.9953 567.43 42.2734 566.267 45.1806L568.124 45.9234C569.18 43.2839 570.615 41.338 572.398 40.0202L571.209 38.4118ZM566.267 45.1806C565.098 48.1028 564.531 51.5853 564.531 55.6H566.531C566.531 51.764 567.074 48.5479 568.124 45.9234L566.267 45.1806ZM564.531 55.6C564.531 59.6147 565.098 63.0972 566.267 66.0194L568.124 65.2766C567.074 62.6521 566.531 59.436 566.531 55.6H564.531ZM566.267 66.0194C567.43 68.9266 569.067 71.2047 571.209 72.7882L572.398 71.1798C570.615 69.862 569.18 67.9161 568.124 65.2766L566.267 66.0194ZM571.217 72.7942C573.402 74.3749 575.914 75.16 578.715 75.16V73.16C576.312 73.16 574.215 72.4945 572.389 71.1738L571.217 72.7942Z" fill="#F4E3A7"/>
</svg>
