<svg width="300" height="73" viewBox="0 0 300 73" fill="none" xmlns="http://www.w3.org/2000/svg">
<g clip-path="url(#clip0)">
<path d="M90.9774 47.7597C90.9774 48.2392 90.4726 48.6227 89.8731 48.6227H71.1314C70.6581 48.6227 70.2479 48.2392 70.2479 47.7597V11.2597C70.2479 10.6525 70.6581 10.173 71.1314 10.173H76.3059C76.7791 10.173 77.1262 10.6525 77.1262 11.2597V41.6231H89.8731C90.4726 41.6231 90.9774 42.0386 90.9774 42.5181V47.7597ZM120.384 36.6052C120.384 40.3447 118.869 43.5408 116.093 45.7781C113.758 47.6319 110.697 48.6547 107.447 48.6547C104.166 48.6547 101.137 47.6319 98.7707 45.7781C95.9941 43.5408 94.5112 40.3447 94.5112 36.6052V11.0999C94.5112 10.6205 94.8898 10.173 95.3946 10.173H100.538C101.042 10.173 101.389 10.6205 101.389 11.0999V36.6052C101.389 41.4953 106.816 41.6871 107.447 41.6871C108.047 41.6871 113.505 41.4953 113.505 36.6052V11.0999C113.505 10.6205 113.884 10.173 114.326 10.173H119.532C119.973 10.173 120.384 10.6205 120.384 11.0999V36.6052ZM125.684 10.205L140.135 24.8434L154.586 10.205V47.7597C154.586 48.2392 154.207 48.6547 153.734 48.6547H148.654C148.181 48.6547 147.77 48.2392 147.77 47.7597V26.825L140.135 34.5597L132.499 26.825V47.7597C132.499 48.2392 132.121 48.6547 131.648 48.6547H126.536C126.094 48.6547 125.684 48.2392 125.684 47.7597V10.205ZM171.056 17.1087V41.5912H176.83C177.461 41.5912 177.934 41.9747 177.934 42.4861V47.7278C177.934 48.2072 177.461 48.6227 176.83 48.6227H158.119C157.615 48.6227 157.236 48.2072 157.236 47.7278V42.4861C157.236 41.9747 157.615 41.5912 158.119 41.5912H164.114V17.1087H158.119C157.615 17.1087 157.236 16.7571 157.236 16.2457V11.036C157.236 10.5246 157.615 10.1411 158.119 10.1411H176.83C177.461 10.1411 177.934 10.5246 177.934 11.036V16.2457C177.934 16.7571 177.461 17.1087 176.83 17.1087H171.056ZM209.139 48.8784L190.144 27.8797V47.7278C190.144 48.2072 189.766 48.6227 189.293 48.6227H184.118C183.645 48.6227 183.235 48.2072 183.235 47.7278V9.91736L202.229 30.8841V11.068C202.229 10.5885 202.639 10.173 203.081 10.173H208.287C208.728 10.173 209.139 10.5885 209.139 11.068V48.8784ZM237.882 33.7606C237.882 33.2492 237.472 32.8977 236.999 32.8977H234.096L228.701 11.036L228.638 10.8123C228.511 10.4927 228.196 10.2689 227.849 10.2689H222.075C221.728 10.2689 221.412 10.4927 221.286 10.8123L221.223 11.068L212.262 47.3442C212.262 47.4082 212.262 47.4401 212.231 47.4401V47.6319C212.231 48.1752 212.609 48.5588 213.051 48.5588H218.415C218.762 48.5588 219.109 48.3031 219.204 47.9515C219.204 47.8876 219.235 47.8556 219.235 47.8556L221.191 39.8333H228.732L230.688 47.7917L230.72 47.9515C230.846 48.3031 231.162 48.5588 231.509 48.5588H236.873C237.346 48.5588 237.693 48.1752 237.693 47.6319V47.536L237.661 47.3123L235.8 39.8333H236.999C237.472 39.8333 237.882 39.4817 237.882 39.0023V33.7606ZM222.895 32.8977L224.978 24.6196L227.028 32.8977H222.895ZM269.276 47.2164L262.272 34.5916L261.294 32.8977L261.073 32.5141C267.478 31.0759 270.791 26.2816 270.791 21.5833C270.791 18.483 269.371 15.5426 266.941 13.497C264.48 11.3237 260.978 10.205 256.971 10.205H244.066C243.593 10.205 243.183 10.6205 243.183 11.068V14.6157L243.625 15.4147V15.4467L249.493 25.9301H243.183V47.7597C243.183 48.2392 243.593 48.6547 244.066 48.6547H249.241C249.683 48.6547 250.061 48.2392 250.061 47.7597V32.8977H253.374L254.321 34.5916L261.861 48.1113L261.956 48.2392C262.082 48.4629 262.366 48.6547 262.65 48.6547H268.582C269.055 48.6547 269.434 48.2392 269.434 47.7278C269.434 47.568 269.434 47.4401 269.339 47.3123L269.276 47.2164ZM256.466 24.2681L252.554 17.2046H256.971C261.735 17.2046 263.849 19.4738 263.849 21.5833C263.849 23.3731 262.272 25.3548 258.675 25.8342C258.296 25.8661 257.854 25.9301 257.413 25.9301L256.466 24.2681ZM300.26 11.068C300.26 11.1958 300.26 11.2917 300.197 11.4195L300.134 11.5474L290.542 30.2129L289.091 33.1214L281.392 48.0154L281.36 48.1752C281.36 48.2072 281.36 48.2072 281.297 48.2072C281.171 48.4309 280.919 48.6227 280.603 48.6227H274.766C274.293 48.6227 273.914 48.2072 273.914 47.6639C273.914 47.568 273.914 47.5041 273.977 47.4082L274.104 47.1205L283.033 29.7654L273.977 11.5154C273.914 11.3237 273.883 11.1958 273.883 11.068C273.883 10.9721 273.883 10.8442 273.914 10.7484L274.072 10.4927C274.23 10.2689 274.451 10.1411 274.766 10.1411H280.509C280.824 10.1411 281.14 10.3009 281.266 10.5885L286.945 22.1266L292.782 10.7164C292.845 10.6525 292.845 10.6205 292.845 10.6205L292.908 10.4927C293.066 10.2689 293.319 10.1411 293.571 10.1411H299.408C299.913 10.1411 300.26 10.5885 300.26 11.068Z" fill="white"/>
<path d="M45.6199 30.9091V32.0826H41.7145V27.3884H39.6426C43.446 25.9848 46.1772 22.186 46.1772 17.7066C46.1772 12.0354 41.8065 7.43799 36.415 7.43799C32.857 7.43799 29.7537 9.44653 28.0473 12.4373C26.3409 9.44653 23.2376 7.43799 19.6796 7.43799C14.2881 7.43799 9.91736 12.0354 9.91736 17.7066C9.91736 22.186 12.6486 25.9848 16.4519 27.3884H14.3801V33.8429H11.033V37.3636H14.3801V43.8182H25.537V44.9917H22.7478V47.3388H24.4994L11.8921 66.1157H14.63L27.2306 47.3388H28.9622L16.3549 66.1157H19.0928L31.6934 47.3388H33.3468V44.9917H30.5576V43.8182H41.7145V39.1239H45.6199V40.2975H54.5455V30.9091H45.6199ZM22.9073 27.3884C25.0573 26.5929 26.8755 25.0321 28.0473 22.9758C29.2193 25.0319 31.0374 26.5927 33.1873 27.3884H22.9073Z" fill="white"/>
<path d="M70.5328 57.8988H73.192V57.624H70.5328V54.8547H73.2869V54.573H70.2479V61.3071H70.5328V57.8988ZM78.6527 59.0945C78.6527 59.7679 78.8494 60.3176 79.2361 60.7437C79.6227 61.1697 80.1179 61.3827 80.7149 61.3827C81.3118 61.3827 81.8002 61.1697 82.1869 60.7437C82.5804 60.3176 82.7771 59.7679 82.7771 59.0945C82.7771 58.4211 82.5804 57.8713 82.1869 57.4453C81.8002 57.0193 81.3118 56.8062 80.7149 56.8062C80.1179 56.8062 79.6227 57.0193 79.2361 57.4453C78.8494 57.8713 78.6527 58.4211 78.6527 59.0945ZM78.9376 59.0945C78.9376 58.5035 79.1072 58.0225 79.4396 57.6514C79.7788 57.2804 80.1993 57.0948 80.7149 57.0948C81.2236 57.0948 81.651 57.2804 81.9834 57.6514C82.3226 58.0225 82.4922 58.5035 82.4922 59.0945C82.4922 59.6854 82.3226 60.1664 81.9834 60.5375C81.651 60.9086 81.2236 61.0941 80.7149 61.0941C80.1993 61.0941 79.7788 60.9086 79.4396 60.5375C79.1072 60.1664 78.9376 59.6854 78.9376 59.0945ZM90.612 57.4315L90.7816 57.1636C90.5306 56.923 90.2932 56.8062 90.0558 56.8062C89.5267 56.8062 89.1875 57.1223 89.045 57.7545V56.8818H88.7601V61.3071H89.045V58.6135C89.045 58.263 89.1264 57.9263 89.296 57.6033C89.4724 57.2804 89.6895 57.1223 89.954 57.1223C90.2389 57.1223 90.456 57.2254 90.612 57.4315ZM103.365 56.8818L105.217 61.1147L104.267 63.4236H104.6L107.354 56.8818H107.021L105.387 60.8055L103.684 56.8818H103.365ZM112.625 59.0945C112.625 59.7679 112.821 60.3176 113.208 60.7437C113.595 61.1697 114.09 61.3827 114.687 61.3827C115.277 61.3827 115.772 61.1697 116.159 60.7437C116.552 60.3176 116.742 59.7679 116.742 59.0945C116.742 58.4211 116.552 57.8713 116.159 57.4453C115.772 57.0193 115.277 56.8062 114.687 56.8062C114.09 56.8062 113.595 57.0193 113.208 57.4453C112.821 57.8713 112.625 58.4211 112.625 59.0945ZM112.909 59.0945C112.909 58.5035 113.079 58.0225 113.411 57.6514C113.744 57.2804 114.171 57.0948 114.687 57.0948C115.195 57.0948 115.623 57.2804 115.955 57.6514C116.294 58.0225 116.457 58.5035 116.457 59.0945C116.457 59.6854 116.294 60.1664 115.955 60.5375C115.623 60.9086 115.195 61.0941 114.687 61.0941C114.171 61.0941 113.744 60.9086 113.411 60.5375C113.079 60.1664 112.909 59.6854 112.909 59.0945ZM125.527 59.5755C125.527 59.9603 125.391 60.3108 125.113 60.6268C124.842 60.9361 124.496 61.0941 124.089 61.0941C123.37 61.0941 123.01 60.62 123.01 59.6717V56.8818H122.725V59.7679C122.725 60.2627 122.834 60.6543 123.051 60.9429C123.268 61.2384 123.58 61.3827 123.994 61.3827C124.387 61.3827 124.72 61.2865 124.977 61.101C125.235 60.9086 125.425 60.6475 125.527 60.3039V61.3071H125.812V56.8818H125.527V59.5755ZM134.027 57.4315L134.203 57.1636C133.952 56.923 133.714 56.8062 133.477 56.8062C132.948 56.8062 132.609 57.1223 132.46 57.7545V56.8818H132.175V61.3071H132.46V58.6135C132.46 58.263 132.548 57.9263 132.717 57.6033C132.887 57.2804 133.111 57.1223 133.375 57.1223C133.66 57.1223 133.877 57.2254 134.027 57.4315ZM150.714 58.8746H147.431C147.444 58.4073 147.614 57.9881 147.939 57.6308C148.265 57.2735 148.659 57.0948 149.12 57.0948C149.581 57.0948 149.961 57.2666 150.259 57.624C150.558 57.9744 150.707 58.3936 150.714 58.8746ZM147.41 59.1632H151.012C151.019 59.1288 151.019 59.0945 151.019 59.0532C151.019 58.373 150.843 57.8232 150.49 57.4178C150.144 57.0055 149.683 56.8062 149.12 56.8062C148.543 56.8062 148.068 57.0193 147.689 57.4522C147.309 57.8782 147.119 58.4279 147.119 59.0945C147.119 59.7473 147.315 60.297 147.716 60.7299C148.116 61.1628 148.584 61.3827 149.12 61.3827C149.954 61.3827 150.578 60.9842 150.992 60.1802L150.741 60.029C150.375 60.7299 149.839 61.0872 149.14 61.0872C148.672 61.0872 148.265 60.9017 147.933 60.5306C147.6 60.1527 147.424 59.6992 147.41 59.1632ZM157.287 58.6135C157.287 58.2287 157.423 57.8782 157.701 57.5621C157.979 57.2529 158.318 57.0948 158.732 57.0948C159.444 57.0948 159.804 57.569 159.804 58.5173V61.3071H160.089V58.4211C160.089 57.9263 159.98 57.5346 159.763 57.2391C159.553 56.9505 159.234 56.8062 158.827 56.8062C158.427 56.8062 158.094 56.9024 157.837 57.088C157.579 57.2804 157.396 57.5415 157.287 57.8851V56.8818H157.002V61.3071H157.287V58.6135ZM166.309 55.3426V56.8818H165.597V57.1704H166.309V61.3071H166.594V57.1704H167.306V56.8818H166.594V55.3426H166.309ZM176.227 58.8746H172.937C172.95 58.4073 173.12 57.9881 173.446 57.6308C173.771 57.2735 174.165 57.0948 174.626 57.0948C175.094 57.0948 175.474 57.2666 175.765 57.624C176.064 57.9744 176.22 58.3936 176.227 58.8746ZM172.916 59.1632H176.518C176.525 59.1288 176.525 59.0945 176.525 59.0532C176.525 58.373 176.356 57.8232 176.003 57.4178C175.65 57.0055 175.189 56.8062 174.626 56.8062C174.049 56.8062 173.574 57.0193 173.195 57.4522C172.815 57.8782 172.625 58.4279 172.625 59.0945C172.625 59.7473 172.821 60.297 173.222 60.7299C173.622 61.1628 174.09 61.3827 174.626 61.3827C175.467 61.3827 176.091 60.9842 176.498 60.1802L176.254 60.029C175.888 60.7299 175.352 61.0872 174.646 61.0872C174.178 61.0872 173.778 60.9017 173.439 60.5306C173.106 60.1527 172.93 59.6992 172.916 59.1632ZM184.36 57.4315L184.537 57.1636C184.286 56.923 184.048 56.8062 183.811 56.8062C183.282 56.8062 182.942 57.1223 182.793 57.7545V56.8818H182.508V61.3071H182.793V58.6135C182.793 58.263 182.881 57.9263 183.051 57.6033C183.221 57.2804 183.444 57.1223 183.709 57.1223C183.994 57.1223 184.211 57.2254 184.36 57.4315ZM190.472 55.3426V56.8818H189.76V57.1704H190.472V61.3071H190.757V57.1704H191.469V56.8818H190.757V55.3426H190.472ZM197.052 57.6789C197.303 57.4796 197.541 57.3285 197.758 57.2254C197.975 57.1223 198.246 57.0742 198.572 57.0742C199.345 57.0742 199.732 57.4247 199.732 58.1325V58.9227C199.392 58.7097 198.972 58.6066 198.456 58.6066C197.988 58.6066 197.581 58.7303 197.249 58.9777C196.91 59.2182 196.74 59.5686 196.74 60.0084C196.74 60.4757 196.883 60.8261 197.167 61.0598C197.452 61.2865 197.792 61.4033 198.192 61.4033C198.599 61.4033 198.931 61.314 199.203 61.1353C199.474 60.9567 199.643 60.7162 199.732 60.4207V61.3071H200.017V58.1325C200.017 57.6927 199.901 57.356 199.671 57.1292C199.447 56.9024 199.074 56.7856 198.572 56.7856C198.321 56.7856 198.09 56.82 197.866 56.8956C197.636 56.9711 197.466 57.0467 197.351 57.1155C197.235 57.191 197.079 57.2941 196.896 57.4315L197.052 57.6789ZM197.032 60.0084C197.032 59.6579 197.167 59.3762 197.439 59.1769C197.703 58.9777 198.043 58.8746 198.456 58.8746C198.911 58.8746 199.338 58.9914 199.732 59.2182V59.7679C199.732 60.1664 199.582 60.4894 199.284 60.7505C198.985 61.0048 198.639 61.1353 198.239 61.1353C197.859 61.1353 197.561 61.0391 197.351 60.8467C197.14 60.6543 197.032 60.3726 197.032 60.0084ZM206.237 54.8135C206.237 54.8891 206.257 54.9578 206.305 55.0059C206.352 55.054 206.42 55.0815 206.502 55.0815C206.583 55.0815 206.651 55.054 206.698 55.0059C206.746 54.9578 206.766 54.8891 206.766 54.8135C206.766 54.7379 206.746 54.6692 206.698 54.6211C206.651 54.573 206.583 54.5455 206.502 54.5455C206.42 54.5455 206.352 54.573 206.305 54.6211C206.257 54.6692 206.237 54.7379 206.237 54.8135ZM206.359 56.8818V61.3071H206.644V56.8818H206.359ZM213.414 58.6135C213.414 58.2287 213.55 57.8782 213.828 57.5621C214.106 57.2529 214.445 57.0948 214.859 57.0948C215.571 57.0948 215.931 57.569 215.931 58.5173V61.3071H216.216V58.4211C216.216 57.9263 216.107 57.5346 215.89 57.2391C215.68 56.9505 215.361 56.8062 214.954 56.8062C214.554 56.8062 214.221 56.9024 213.963 57.088C213.706 57.2804 213.523 57.5415 213.414 57.8851V56.8818H213.129V61.3071H213.414V58.6135ZM222.863 58.6135C222.863 58.2355 222.999 57.8851 223.264 57.569C223.528 57.2529 223.847 57.0948 224.213 57.0948C224.532 57.0948 224.776 57.2185 224.946 57.4659C225.109 57.7202 225.19 58.0706 225.19 58.5173V61.3071H225.475V58.6135C225.475 58.2355 225.611 57.8851 225.875 57.569C226.14 57.2529 226.459 57.0948 226.825 57.0948C227.144 57.0948 227.388 57.2185 227.558 57.4659C227.72 57.7202 227.802 58.0706 227.802 58.5173V61.3071H228.087V58.4211C228.087 57.9332 227.985 57.5415 227.781 57.246C227.571 56.9505 227.286 56.8062 226.92 56.8062C226.554 56.8062 226.235 56.9024 225.977 57.0948C225.719 57.2941 225.536 57.5621 225.428 57.8988C225.36 57.5621 225.231 57.2941 225.041 57.0948C224.851 56.9024 224.607 56.8062 224.308 56.8062C223.949 56.8062 223.644 56.9024 223.393 57.0948C223.142 57.2872 222.965 57.5484 222.863 57.8851V56.8818H222.578V61.3071H222.863V58.6135ZM237.672 58.8746H234.382C234.395 58.4073 234.565 57.9881 234.891 57.6308C235.216 57.2735 235.61 57.0948 236.071 57.0948C236.539 57.0948 236.919 57.2666 237.211 57.624C237.509 57.9744 237.665 58.3936 237.672 58.8746ZM234.361 59.1632H237.964C237.97 59.1288 237.97 59.0945 237.97 59.0532C237.97 58.373 237.801 57.8232 237.448 57.4178C237.095 57.0055 236.634 56.8062 236.071 56.8062C235.494 56.8062 235.019 57.0193 234.64 57.4522C234.26 57.8782 234.07 58.4279 234.07 59.0945C234.07 59.7473 234.266 60.297 234.667 60.7299C235.067 61.1628 235.535 61.3827 236.071 61.3827C236.912 61.3827 237.536 60.9842 237.943 60.1802L237.699 60.029C237.333 60.7299 236.797 61.0872 236.091 61.0872C235.623 61.0872 235.223 60.9017 234.884 60.5306C234.551 60.1527 234.375 59.6992 234.361 59.1632ZM244.238 58.6135C244.238 58.2287 244.381 57.8782 244.652 57.5621C244.93 57.2529 245.276 57.0948 245.683 57.0948C246.402 57.0948 246.755 57.569 246.755 58.5173V61.3071H247.04V58.4211C247.04 57.9263 246.938 57.5346 246.721 57.2391C246.504 56.9505 246.192 56.8062 245.778 56.8062C245.378 56.8062 245.052 56.9024 244.794 57.088C244.53 57.2804 244.347 57.5415 244.238 57.8851V56.8818H243.953V61.3071H244.238V58.6135ZM253.26 55.3426V56.8818H252.548V57.1704H253.26V61.3071H253.545V57.1704H254.257V56.8818H253.545V55.3426H253.26Z" fill="white"/>
</g>
<defs>
<clipPath id="clip0">
<rect width="300" height="72.7273" fill="white"/>
</clipPath>
</defs>
</svg>
